<?xml version="1.0" encoding="UTF-8"?>
<svg width="132.29mm" height="132.29mm" version="1.1" viewBox="0 0 132.29 132.29" xmlns="http://www.w3.org/2000/svg">
<g transform="translate(471.71 80.22)">
<g transform="translate(.53454 1.7373)">
<path d="m-360.22-74.459c-28.032 5.3761-64.196 11.821-92.316 21.773-22.49 7.9602-19.605 30.849 5.0539 26.858 30-4.8548 67.281-10.699 95.353-14.616-0.64545-11.834-2.5854-23.356-8.0905-34.016zm-96.954 29.841c3.9562-0.74441 7.7233 1.6284 8.4142 5.2999 0.69043 3.6716-1.9562 7.2513-5.9124 7.9957-3.9562 0.7444-7.7232-1.6285-8.4141-5.2999-0.69042-3.6715 1.9562-7.2512 5.9123-7.9957z" fill="#113456" style="paint-order:normal"/>
<path d="m-354.11-76.234c-6.1145 1.1727-18.326 4.0969-24.43 5.2807l7.3928 33.203c6.3875-0.9175 18.616-2.3159 24.909-3.1941-0.64547-11.834-2.3666-24.63-7.8717-35.29z" fill="#275a8d" style="paint-order:normal"/>
<g transform="matrix(1.1047 -.26755 .26755 1.1047 -295.73 5.0268)" fill="#418dd9" stroke-width="1px" aria-label="+ i really">
<path d="m-109.59-68.714c-0.089 1.3875-2.4458-0.1706-2.4103 1.0204 0.36948 0.92893-0.61602 2.6504-1.1951 1.1347 0.0168-0.93201 0.24139-2.0611-1.1621-1.5039-1.6749 0.12542-0.90266-1.8258 0.45486-1.2068 1.4742 0.43966-0.0647-2.8816 1.747-1.9823 0.14653 1.24-0.13245 2.5429 1.722 1.9166 0.36032 0.02 0.86116 0.16781 0.84361 0.62124z"/>
<path d="m-102.78-72.896c-2.2543-0.55533 1.0522-2.7623 0.72678-0.48004-0.12625 0.27727-0.413 0.49201-0.72678 0.48004zm0.30213 5.4517c0.0582 0.94586 0.41317 4.0299-1.2236 2.6788-0.17956-2.0272-0.0573-4.0762 0.0872-6.1012 2.0744-1.5718 0.95718 2.4924 1.1364 3.4224z"/>
<path d="m-90.867-69.358c-0.35082 1.7588-1.6949 0.24631-1.2891-0.85938-1.4916 0.05506-2.992 1.3472-2.6886 2.9103-0.07892 1.057 0.19116 2.1931-0.15638 3.1909-1.3457 0.70152-1.0836-1.1527-1.0893-1.9485 0.01934-1.633-0.05224-3.2705 0.0705-4.8993 1.0358-1.4884 1.0728 1.7574 1.8807 0.18967 1.4368-1.159 3.8305-0.95952 3.2722 1.4162z"/>
<path d="m-86.348-64.088c-2.353 0.27226-4.1408-2.1361-3.3655-4.3384 0.25129-2.1773 2.5915-3.6168 4.6256-2.7749 2.4364 0.84593 0.66104 3.3783-1.138 3.6566-0.78817 0.37345-1.5763 0.7469-2.3645 1.1204 1.2036 1.8958 3.7418 0.96604 5.0623 0.05203 1.3351 1.4318-1.7546 2.3186-2.8198 2.2844zm-0.18127-6.1163c-1.2603-0.54741-3.1258 3.3447-1.3751 2.164 1.0179-0.5018 2.0935-0.92053 2.9931-1.6269-0.4321-0.4072-1.0427-0.53936-1.618-0.53711z"/>
<path d="m-76.694-63.953c-1.2507-1.5544-3.7187 1.1675-5.1562-0.9668-1.5477-2.2077-0.43496-5.8956 2.3599-6.4134 1.7565-0.47081 3.6364 0.76684 2.7141 2.6104-0.77494 1.6064 1.2116 3.4857 0.31555 4.7261zm-1.3965-4.6661c0.95522-2.544-2.6591-1.5586-2.9272 0.16617-0.9372 1.7855 0.85633 4.353 2.7544 2.8181 0.82545-0.56077-0.03186-2.0799 0.17288-2.9843z"/>
<path d="m-73.196-69.674c-0.08328 1.7284-0.03569 3.4717-0.22072 5.1881-1.9466 1.2665-1.0589-2.4666-1.1435-3.5088 0.08144-2.2743 0.03377-4.5571 0.1498-6.8272 1.924-1.2991 1.1388 2.3198 1.2333 3.3867-0.01142 0.58697-0.01883 1.174-0.01888 1.7611z"/>
<path d="m-69.436-69.674c-0.08328 1.7284-0.03569 3.4717-0.22072 5.1881-1.9466 1.2665-1.0589-2.4666-1.1435-3.5088 0.08144-2.2743 0.03377-4.5571 0.1498-6.8272 1.924-1.2991 1.1388 2.3198 1.2333 3.3867-0.01142 0.58697-0.01883 1.174-0.01888 1.7611z"/>
<path d="m-61.527-70.385c-1.4366 3.1829-3.0461 6.2999-4.1853 9.6042-2.1757 0.84518-0.54642-2.5672-0.08224-3.4957 0.74289-0.83986-0.24231-1.6266-0.52828-2.4351-0.6457-1.3327-1.442-2.6142-2.0188-3.9621 1.2038-1.9336 2.3288 1.7382 2.9679 2.6755 0.42367 1.4505 0.79477 1.47 1.1681 0.15822 0.5285-1.1723 0.95491-2.4281 1.752-3.4447 0.54145-0.35656 1.2854 0.33916 0.92651 0.89966z"/>
</g>
<g transform="matrix(.96209 -.2075 .2075 .96209 25.912 -52.71)" fill="#dadada" stroke-width="1px" aria-label="69">
<path d="m-388.94-81.96c-3.1615 0.07399-3.9724-4.0595-2.8389-6.3982 0.29035-1.6345 2.7892-5.2548 4.0606-3.6089-0.44097 1.0134-4.056 3.4132-1.0784 3.0781 2.8498-0.20087 4.3801 3.4509 2.6287 5.5412-0.6173 0.88091-1.6763 1.4927-2.772 1.3877zm0-5.5121c-2.8259-0.34004-2.5344 4.6205 0.17604 4.3457 2.5863-0.22618 2.7512-4.6838-0.17604-4.3457z"/>
<path d="m-379.28-83.256c-0.7292 0.75861-4.068 2.2452-3.2966 0.2874 1.247-0.55674 4.5546-2.2796 3.3763-3.1846-2.8507 1.1008-5.9514-2.2308-4.2021-4.9031 1.74-3.059 6.8816-1.6565 6.6098 1.9514 0.0631 2.1314-0.83485 4.4599-2.4875 5.8489zm-0.95336-8.3521c-3.2899-0.34723-2.7447 5.4317 0.54912 4.3465 2.2445-0.5994 1.8649-4.0795-0.38969-4.3095l-0.13256-0.03075z"/>
</g>
</g>
<g transform="matrix(.9297 .16991 -.16991 .9297 1852.1 945.27)" fill="#4aa158" stroke-width="1px" aria-label="i love tags">
<path d="m-2555.4-574.69c-0.3676 1.6669 0.9835 4.556-0.6889 5.4079-1.3252-1.1002-0.2302-3.0805-0.6116-4.5626-0.059-1.9432-0.1407-3.8859-0.1648-5.83 1.8661-1.2106 1.4497 2.2146 1.3957 3.2387 0.018 0.58223 0.038 1.1644 0.07 1.7461z"/>
<path d="m-2550.7-569.12c-1.695 0.0205-2.9714-1.6262-3.0509-3.2248-0.1501-1.8024 1.0236-3.7632 2.8687-4.1196 1.1017-0.20636 2.2681 0.43217 2.6999 1.465 0.9646 1.8328 0.4888 4.4339-1.3293 5.5548-0.3586 0.20843-0.7713 0.33513-1.1884 0.3246zm0.2522-6.0037c-1.2907 0.0944-2.056 1.5013-1.9549 2.6922 0.029 0.91158 0.6876 1.9392 1.6952 1.8903 1.2615-0.0788 1.9363-1.493 1.8203-2.6284-0.071-0.83944-0.6072-1.921-1.5606-1.9541z"/>
<path d="m-2542.9-570.06c-1.3061 1.5667-1.9961-1.4672-2.3256-2.4011-0.1987-1.32-2.0746-3.0697-0.9388-4.1448 1.525 0.20085 1.3152 2.1228 1.8816 3.1912 0.1403 0.79789 0.9706 2.1182 1.1744 0.58798 0.7835-1.1228 0.5292-3.8843 2.1726-3.7984 0.8949 1.4035-0.7473 2.7947-0.9974 4.1803-0.3221 0.79501-0.6494 1.588-0.9668 2.3849z"/>
<path d="m-2536.2-569.57c-1.8379 0.25369-3.7629-1.3102-3.5737-3.2271-0.1012-1.9097 1.1916-4.0598 3.2616-4.1279 1.6801-0.45649 3.7706 1.815 1.9193 3.0052-1.0691 1.0064-3.0605 1.1153-3.7768 2.3094 1.2557 1.3521 3.3826 0.86213 4.6361-0.23707 1.7687 0.85334-1.0741 2.4516-2.1601 2.2488zm-0.3347-6.1099c-1.0721-0.21792-2.5866 1.9217-1.5497 2.2758 0.8278-0.54282 3.244-1.0441 2.6665-2.1507-0.3611-0.12265-0.7486-0.0491-1.1168-0.12512z"/>
<path d="m-2524.9-575.13c-1.5405-0.67558-1.6985 1.2986-1.5948 2.4528 0.099 1.1011 0.4855 2.9463-0.6623 3.5102-1.5514-0.27135-0.3798-2.0448-0.6241-3.0366-0.2283-0.92722 0.4148-2.4056-0.3475-2.9818-0.9704 0.62006-2.45-1.4007-0.8898-1.386 1.1211 0.29871 1.5228-0.80797 1.1782-1.6566 0.5385-1.1269 1.8956-0.16987 1.4068 0.84134-0.1404 1.6457 1.8808 0.0764 2.1409 1.4955 0.1437 0.39517-0.2034 0.79615-0.6074 0.7612z"/>
<path d="m-2517.9-568.69c-0.5023-0.0829-0.6877-1.036-1.2791-0.6416-0.7152 0.37561-1.5473 0.56594-2.3442 0.36228-0.7872-0.14923-1.5089-0.66497-1.7954-1.4298-0.3806-1.0402-0.3821-2.2244-0.036-3.2745 0.5829-1.706 2.5214-2.9201 4.3075-2.445 0.5707 0.18706 1.265 0.40504 1.5386 0.98673 0 0.5278-0.316 1.0105-0.2776 1.5567-0.063 1.055-0.2308 2.1533 0.1349 3.1741 0.074 0.48738 0.5674 0.98265 0.2806 1.4585-0.1224 0.16152-0.3244 0.26651-0.5291 0.25261zm-1.2138-4.717c-0.1232-0.48283 0.4777-1.2468-0.099-1.5045-1.015-0.3911-2.1226 0.31928-2.6364 1.1837-0.5199 0.86317-0.573 1.9914-0.187 2.9144 0.3983 0.86477 1.5766 0.91664 2.3401 0.55213 0.4068-0.16553 0.8256-0.49949 0.6616-0.99063-0.082-0.71322-0.089-1.4375-0.08-2.1551z"/>
<path d="m-2510.5-571.74c-0.3089 1.7209-0.065 3.5936-0.951 5.1716-0.2379 0.48456-0.6503 0.8476-1.1523 1.0399-1.2351 0.52484-2.7013 0.49722-3.915-0.0756-0.2566-0.46006-0.08-1.2164 0.582-1.0383 0.7552 0.0602 1.5125 0.42319 2.2691 0.18519 1.0202-0.20188 1.6183-1.2671 1.6977-2.2374 0.022-0.27324-0.01-0.94901-0.2136-0.93026-0.6468 0.90767-1.9707 1.0068-2.9064 0.52172-0.7507-0.34336-1.2755-1.0692-1.414-1.8769-0.3954-1.8524 0.632-3.9893 2.4517-4.642 1.0211-0.32659 2.1925-0.25087 3.1384 0.26587 0.5576 0.29287 0.9341 0.92545 0.8125 1.5612-0.068 0.69708-0.3593 1.3534-0.3991 2.0548zm-2.0403-2.9888c-1.1195-0.15393-2.1374 0.68405-2.5193 1.6896-0.3037 0.75721-0.3717 1.6748 0.03 2.4073 0.3353 0.54377 1.0446 0.82935 1.6492 0.58276 0.9398-0.35299 1.5684-1.2979 1.6896-2.2747 0.1379-0.6666 0.3574-1.4067 0.05-2.0577-0.1732-0.31946-0.5679-0.39385-0.8993-0.3473z"/>
<path d="m-2504.1-573.77c-0.3876-2.4091-4.4757 0.62756-1.3652 0.92784 2.6224 0.90121 1.7346 4.9148-0.9851 4.7134-1.2495 0.50199-3.7735-1.8039-1.5043-1.8019 1.1893 0.86998 3.8843-0.32005 1.8423-1.4348-2.0484-0.34111-3.7316-2.7402-1.4066-4.0613 1.3001-1.1931 5.2979-0.75714 3.679 1.5424-0.087 0.0381-0.1734 0.0762-0.2601 0.11431z"/>
</g>
<path d="m-344.74-25.124c-6.1284-1.0979-18.576-2.7472-24.699-3.8311l-5.0054 33.646c6.2917 1.434 18.208 4.5136 24.398 5.9506 3.6411-11.279 6.6229-23.84 5.3066-35.766z" fill="#2d6236" style="paint-order:normal"/>
<g transform="matrix(.9297 .16991 -.16991 .9297 1916.8 958.68)" fill="#dadada" stroke-width="1px" aria-label="34">
<path d="m-2560.2-569.43q-1.0138 0-1.8194-0.42297-0.9064-0.49011-1.2219-1.3763-0.04-0.12085-0.04-0.23499 0-0.26855 0.2014-0.44311 0.2081-0.18128 0.4767-0.18128 0.2685 0 0.4632 0.24841l0.3089 0.46326q0.2417 0.32898 0.6512 0.49683 0.4096 0.16113 0.9802 0.16113 0.7318 0 1.2824-0.45654 0.5841-0.4834 0.5841-1.1816 0-1.0138-0.7453-1.618-0.6579-0.52368-1.7456-0.63781-0.7452-0.0739-0.7452-0.60425 0-0.39612 0.5841-0.60425l1.6046-0.39612q0.4633-0.16784 0.6983-0.44983 0.235-0.28869 0.2417-0.69824 0.013-0.59082-0.4566-0.95337-0.4901-0.37597-1.3763-0.37597-0.4566 0-0.8862 0.22155l-0.7587 0.47669q-0.2216 0.14099-0.3559 0.14099-0.2685 0-0.4632-0.20142-0.188-0.20813-0.188-0.46997 0-0.53039 1.0272-1.0205 0.893-0.43641 1.4704-0.43641 1.4434 0 2.2894 0.63782 0.9064 0.68482 0.9064 1.9537 0 1.5778-1.2757 2.0813-0.1141 0.047-0.2618 0.094 0.8929 0.32898 1.336 0.98694 0.4432 0.65124 0.4432 1.6315 0 1.3226-0.9333 2.2491-0.9332 0.9198-2.276 0.9198z"/>
<path d="m-2549.4-572.67v2.4841q0 0.62439-0.611 0.62439-0.7117 0-0.7117-0.97352 0-0.12084 0.014-0.3424 0.013-0.22156 0.013-0.30213l-0.01-1.524-2.9608-0.0739q-0.9198 0-1.2757-0.0604-0.6109-0.10071-0.6109-0.47669 0-0.30212 0.3692-0.76538l0.5774-0.68481 3.3032-4.8206q0.4499-0.62439 1.1414-0.62439 0.7587 0 0.7587 0.65796v5.5792q0.1141-7e-3 0.2752-7e-3 1.2354 0 1.2354 0.66467 0 0.4834-0.5103 0.61097-0.2282 0.0604-1.0003 0.0336zm-1.3025-5.6799q-1.7926 2.8601-2.7997 4.2834l2.7997 0.0671z"/>
</g>
<g transform="matrix(.1976 .036114 -.036114 .1976 -325.27 -67.285)" fill="#4aa158" aria-label="+">
<path d="m-493.08 314.34c-0.0489 3.7279-4.7678 3.8996-7.4987 3.3367-3.6053-1.4027-7.9235 0.96777-6.2932 5.2004 1.0798 3.1434-0.60545 8.8662-4.8234 6.7976-3.6452-2.0855-1.24-6.7037-1.8488-9.936-2.0642-4.0613-7.6116-0.089-10.84-2.4827-4.1787-2.5752 1.0937-8.1378 4.6872-6.1325 3.6391 1.3653 7.8794-1.1274 5.9251-5.2444-0.89217-3.2023 1.9875-8.7744 5.6881-6.1442 3.634 2.6914-0.77449 7.4233 1.9769 10.557 3.3424 2.2417 7.9403-1.1136 11.393 1.362 0.90882 0.59128 1.7649 1.5165 1.6334 2.6864z" fill="#4aa158" stroke-width="5.679px"/>
</g>
<path d="m-351.07-25.656c-28.095-5.0334-64.166-11.986-93.984-12.779-23.849-0.63414-29.364 21.767-4.9134 26.884 29.746 6.2259 66.643 14.139 94.252 20.549 3.6411-11.279 5.9617-22.729 4.6453-34.655zm-101.21-6.9112c3.96 0.72376 6.6257 4.2896 5.9541 7.9647-0.67209 3.675-4.4264 6.0676-8.3864 5.3438-3.96-0.72375-6.6256-4.2897-5.954-7.9647 0.67208-3.6749 4.4263-6.0675 8.3863-5.3438z" fill="#1b3c21" style="paint-order:normal"/>
<g transform="matrix(.9297 .16991 -.16991 .9297 1852.1 945.27)" fill="#4aa158" stroke-width="1px" aria-label="i love tags">
<path d="m-2555.4-574.69c-0.3676 1.6669 0.9835 4.556-0.6889 5.4079-1.3252-1.1002-0.2302-3.0805-0.6116-4.5626-0.059-1.9432-0.1407-3.8859-0.1648-5.83 1.8661-1.2106 1.4497 2.2146 1.3957 3.2387 0.018 0.58223 0.038 1.1644 0.07 1.7461z"/>
<path d="m-2550.7-569.12c-1.695 0.0205-2.9714-1.6262-3.0509-3.2248-0.1501-1.8024 1.0236-3.7632 2.8687-4.1196 1.1017-0.20636 2.2681 0.43217 2.6999 1.465 0.9646 1.8328 0.4888 4.4339-1.3293 5.5548-0.3586 0.20843-0.7713 0.33513-1.1884 0.3246zm0.2522-6.0037c-1.2907 0.0944-2.056 1.5013-1.9549 2.6922 0.029 0.91158 0.6876 1.9392 1.6952 1.8903 1.2615-0.0788 1.9363-1.493 1.8203-2.6284-0.071-0.83944-0.6072-1.921-1.5606-1.9541z"/>
<path d="m-2542.9-570.06c-1.3061 1.5667-1.9961-1.4672-2.3256-2.4011-0.1987-1.32-2.0746-3.0697-0.9388-4.1448 1.525 0.20085 1.3152 2.1228 1.8816 3.1912 0.1403 0.79789 0.9706 2.1182 1.1744 0.58798 0.7835-1.1228 0.5292-3.8843 2.1726-3.7984 0.8949 1.4035-0.7473 2.7947-0.9974 4.1803-0.3221 0.79501-0.6494 1.588-0.9668 2.3849z"/>
<path d="m-2536.2-569.57c-1.8379 0.25369-3.7629-1.3102-3.5737-3.2271-0.1012-1.9097 1.1916-4.0598 3.2616-4.1279 1.6801-0.45649 3.7706 1.815 1.9193 3.0052-1.0691 1.0064-3.0605 1.1153-3.7768 2.3094 1.2557 1.3521 3.3826 0.86213 4.6361-0.23707 1.7687 0.85334-1.0741 2.4516-2.1601 2.2488zm-0.3347-6.1099c-1.0721-0.21792-2.5866 1.9217-1.5497 2.2758 0.8278-0.54282 3.244-1.0441 2.6665-2.1507-0.3611-0.12265-0.7486-0.0491-1.1168-0.12512z"/>
<path d="m-2524.9-575.13c-1.5405-0.67558-1.6985 1.2986-1.5948 2.4528 0.099 1.1011 0.4855 2.9463-0.6623 3.5102-1.5514-0.27135-0.3798-2.0448-0.6241-3.0366-0.2283-0.92722 0.4148-2.4056-0.3475-2.9818-0.9704 0.62006-2.45-1.4007-0.8898-1.386 1.1211 0.29871 1.5228-0.80797 1.1782-1.6566 0.5385-1.1269 1.8956-0.16987 1.4068 0.84134-0.1404 1.6457 1.8808 0.0764 2.1409 1.4955 0.1437 0.39517-0.2034 0.79615-0.6074 0.7612z"/>
<path d="m-2517.9-568.69c-0.5023-0.0829-0.6877-1.036-1.2791-0.6416-0.7152 0.37561-1.5473 0.56594-2.3442 0.36228-0.7872-0.14923-1.5089-0.66497-1.7954-1.4298-0.3806-1.0402-0.3821-2.2244-0.036-3.2745 0.5829-1.706 2.5214-2.9201 4.3075-2.445 0.5707 0.18706 1.265 0.40504 1.5386 0.98673 0 0.5278-0.316 1.0105-0.2776 1.5567-0.063 1.055-0.2308 2.1533 0.1349 3.1741 0.074 0.48738 0.5674 0.98265 0.2806 1.4585-0.1224 0.16152-0.3244 0.26651-0.5291 0.25261zm-1.2138-4.717c-0.1232-0.48283 0.4777-1.2468-0.099-1.5045-1.015-0.3911-2.1226 0.31928-2.6364 1.1837-0.5199 0.86317-0.573 1.9914-0.187 2.9144 0.3983 0.86477 1.5766 0.91664 2.3401 0.55213 0.4068-0.16553 0.8256-0.49949 0.6616-0.99063-0.082-0.71322-0.089-1.4375-0.08-2.1551z"/>
<path d="m-2510.5-571.74c-0.3089 1.7209-0.065 3.5936-0.951 5.1716-0.2379 0.48456-0.6503 0.8476-1.1523 1.0399-1.2351 0.52484-2.7013 0.49722-3.915-0.0756-0.2566-0.46006-0.08-1.2164 0.582-1.0383 0.7552 0.0602 1.5125 0.42319 2.2691 0.18519 1.0202-0.20188 1.6183-1.2671 1.6977-2.2374 0.022-0.27324-0.01-0.94901-0.2136-0.93026-0.6468 0.90767-1.9707 1.0068-2.9064 0.52172-0.7507-0.34336-1.2755-1.0692-1.414-1.8769-0.3954-1.8524 0.632-3.9893 2.4517-4.642 1.0211-0.32659 2.1925-0.25087 3.1384 0.26587 0.5576 0.29287 0.9341 0.92545 0.8125 1.5612-0.068 0.69708-0.3593 1.3534-0.3991 2.0548zm-2.0403-2.9888c-1.1195-0.15393-2.1374 0.68405-2.5193 1.6896-0.3037 0.75721-0.3717 1.6748 0.03 2.4073 0.3353 0.54377 1.0446 0.82935 1.6492 0.58276 0.9398-0.35299 1.5684-1.2979 1.6896-2.2747 0.1379-0.6666 0.3574-1.4067 0.05-2.0577-0.1732-0.31946-0.5679-0.39385-0.8993-0.3473z"/>
<path d="m-2504.1-573.77c-0.3876-2.4091-4.4757 0.62756-1.3652 0.92784 2.6224 0.90121 1.7346 4.9148-0.9851 4.7134-1.2495 0.50199-3.7735-1.8039-1.5043-1.8019 1.1893 0.86998 3.8843-0.32005 1.8423-1.4348-2.0484-0.34111-3.7316-2.7402-1.4066-4.0613 1.3001-1.1931 5.2979-0.75714 3.679 1.5424-0.087 0.0381-0.1734 0.0762-0.2601 0.11431z"/>
</g>
<path d="m-344.74-25.124c-6.1284-1.0979-18.576-2.7472-24.699-3.8311l-5.0054 33.646c6.2917 1.434 18.208 4.5136 24.398 5.9506 3.6411-11.279 6.6229-23.84 5.3066-35.766z" fill="#2d6236" style="paint-order:normal"/>
<g transform="matrix(.9297 .16991 -.16991 .9297 1916.8 958.68)" fill="#dadada" stroke-width="1px" aria-label="34">
<path d="m-2560.2-569.43c-1.2856 0.0748-3.2487-0.8227-2.9857-2.3245 0.8676-0.90346 1.4175 0.67501 2.1254 0.91811 1.1413 0.45829 2.7852-0.26374 2.7344-1.6257-0.01-1.4734-1.5962-2.1621-2.8331-2.1868-1.0993-1.0876 0.8582-1.4069 1.6354-1.5299 1.404-0.17239 1.3825-2.2613 0-2.4456-1.1389-0.51399-1.9641 0.71013-2.9866 0.70744-1.1306-0.91929 0.7004-1.8515 1.5546-1.9774 1.4588-0.34957 3.3826 0.3203 3.6813 1.9475 0.3366 1.1155-0.4205 2.2702-1.2292 2.7692 0.9537 0.52993 1.6163 1.529 1.5264 2.6612-0.042 1.69-1.5045 3.159-3.2189 3.0864z"/>
<path d="m-2549.4-572.67c-0.01 0.87671 0.012 1.7544-0.01 2.6305-0.043 0.61406-1.0298 0.63582-1.2131 0.0978-0.1968-0.54036-0.036-1.1185-0.076-1.6787 0-0.36104 0-0.72207-0.01-1.0831-1.3196-0.0367-2.6399-0.059-3.959-0.10245-0.4686 0.0444-1.1513-0.30426-0.7961-0.85094 0.2984-0.55059 0.7995-0.9545 1.1182-1.4929 1.0334-1.5028 2.0571-3.0125 3.0965-4.511 0.3567-0.4952 1.1247-0.74148 1.6532-0.38429 0.2915 0.28649 0.1595 0.72501 0.1897 1.09v4.9827c0.4855-4e-3 1.0967-0.0553 1.4334 0.36688 0.2552 0.41477-0.1168 0.94035-0.5812 0.92651-0.2807 0.0266-0.5782 0.0165-0.849 9e-3zm-1.3025-5.6799c-0.909 1.4433-1.8196 2.8869-2.7997 4.2834 0.9332 0.0224 1.8665 0.0447 2.7997 0.0671v-4.3506z"/>
</g>
<g transform="matrix(.1976 .036114 -.036114 .1976 -325.27 -67.285)" fill="#4aa158" aria-label="+">
<path d="m-493.08 314.34c-0.0489 3.7279-4.7678 3.8996-7.4987 3.3367-3.6053-1.4027-7.9235 0.96777-6.2932 5.2004 1.0798 3.1434-0.60545 8.8662-4.8234 6.7976-3.6452-2.0855-1.24-6.7037-1.8488-9.936-2.0642-4.0613-7.6116-0.089-10.84-2.4827-4.1787-2.5752 1.0937-8.1378 4.6872-6.1325 3.6391 1.3653 7.8794-1.1274 5.9251-5.2444-0.89217-3.2023 1.9875-8.7744 5.6881-6.1442 3.634 2.6914-0.77449 7.4233 1.9769 10.557 3.3424 2.2417 7.9403-1.1136 11.393 1.362 0.90882 0.59128 1.7649 1.5165 1.6334 2.6864z" fill="#4aa158" stroke-width="5.679px"/>
</g>
<g transform="rotate(19.399 -638.5 398.75)">
<path d="m-501.72-53.894c-28.095-5.0334-64.166-11.986-93.984-12.779-23.849-0.63414-29.364 21.767-4.9134 26.884 29.746 6.2259 66.643 14.139 94.252 20.549 3.6411-11.279 5.9617-22.729 4.6453-34.655zm-101.21-6.9112c3.96 0.72376 6.6257 4.2896 5.9541 7.9647-0.67209 3.675-4.4264 6.0676-8.3864 5.3438-3.96-0.72375-6.6256-4.2897-5.954-7.9647 0.67208-3.6749 4.4263-6.0675 8.3863-5.3438z" fill="#193f47" style="paint-order:normal"/>
<path d="m-495.38-53.362c-6.1284-1.0979-18.576-2.7472-24.699-3.8311l-5.0054 33.646c6.2917 1.434 18.208 4.5136 24.398 5.9506 3.6411-11.279 6.6229-23.84 5.3066-35.766z" fill="#2b6a78" style="paint-order:normal"/>
<g transform="matrix(.9297 .16991 -.16991 .9297 1766.1 930.44)" fill="#dadada" aria-label="34">
<path d="m-2563.1-573.66c-0.01-7.3938 10.433-3.4839 10.55-0.48341 0.1174 3.0005 10.91 8.4875 10.781 0.41697-0.1286-8.0705-10.744-3.18-10.781-0.41697-0.037 2.763-10.543 7.8772-10.55 0.48341z" fill="none" stroke="#dadada" stroke-linecap="round" stroke-linejoin="round" stroke-width="1.7519" style="paint-order:normal"/>
</g>
<g transform="matrix(.1976 .036114 -.036114 .1976 -475.92 -95.524)" fill="#4aa158" aria-label="+">
<path d="m-493.08 314.34c-0.0489 3.7279-4.7678 3.8996-7.4987 3.3367-3.6053-1.4027-7.9235 0.96777-6.2932 5.2004 1.0798 3.1434-0.60545 8.8662-4.8234 6.7976-3.6452-2.0855-1.24-6.7037-1.8488-9.936-2.0642-4.0613-7.6116-0.089-10.84-2.4827-4.1787-2.5752 1.0937-8.1378 4.6872-6.1325 3.6391 1.3653 7.8794-1.1274 5.9251-5.2444-0.89217-3.2023 1.9875-8.7744 5.6881-6.1442 3.634 2.6914-0.77449 7.4233 1.9769 10.557 3.3424 2.2417 7.9403-1.1136 11.393 1.362 0.90882 0.59128 1.7649 1.5165 1.6334 2.6864z" fill="#49aabf" stroke-width="5.679px"/>
</g>
<g transform="matrix(1.317 .30927 -.30927 1.317 -47.46 164.76)" fill="#49aabf" stroke-width="1px" aria-label="a lot">
<path d="m-410.25-61.811c-0.65817-0.47252-1.0234-1.0261-1.793-0.36003-1.3776 0.68242-3.4363 0.10802-3.8268-1.5048-0.51946-1.6866-0.15989-3.743 1.3355-4.8252 1.2108-0.99587 3.1869-1.0464 4.3304 0.07008 0.12212 0.99307-0.30691 2.1479-0.15335 3.2374-0.15933 1.0779 0.64504 2.0133 0.68458 3.0099-0.0987 0.22178-0.3329 0.37805-0.57739 0.37262zm-1.3965-4.6661c0.0861-0.77055 0.34961-1.8109-0.8197-1.5846-1.6279 0.1933-2.5964 2.0219-2.2408 3.5415 0.0244 1.2019 1.3521 1.7652 2.3601 1.3216 1.4197-0.319 0.6606-1.7655 0.71377-2.7795-8e-3 -0.16619-0.0133-0.33256-0.0135-0.49893z"/>
<path d="m-402.64-67.531c-0.0644 1.6837-0.0716 3.3716-0.17936 5.0518-0.47397 1.2143-1.738 0.02501-1.2806-0.89431 0.14762-3.0543 0.1549-6.1126 0.2148-9.1689 0.66106-1.3376 1.7124 0.20846 1.3059 1.1447-0.0163 1.289-0.0639 2.5776-0.0608 3.8668z"/>
<path d="m-398.07-61.858c-1.7276 0.04356-2.9503-1.7082-2.8937-3.3234-0.11892-1.8565 1.1557-3.9955 3.1769-4.0297 1.3201-0.17846 2.3745 0.95782 2.6137 2.1699 0.44919 1.7744 0.0145 4.0808-1.764 4.9545-0.35479 0.15908-0.7452 0.2295-1.1329 0.22874zm0.40283-5.9955c-1.5353 0.0069-2.1416 1.8524-1.9407 3.132 0.0593 1.1077 1.3552 1.9156 2.3346 1.3079 1.2388-0.72072 1.16-2.4186 0.78696-3.6124-0.17409-0.49295-0.64956-0.85296-1.1809-0.82754z"/>
<path d="m-388.87-67.974c-0.57242 0.04133-1.8431-0.29375-1.5597 0.63682 0.0222 1.5617 0.16373 3.1261 0.0895 4.686 0.0229 1.2973-1.7893 0.83962-1.3244-0.3101 0.0639-1.642-0.0722-3.2837-0.10538-4.9255-0.85075 0.10945-2.7999-0.18163-1.8098-1.3541 0.55725-0.22568 1.1868 0.01233 1.7762 0.0046 0.098-0.77503-0.5398-2.4403 0.75408-2.3814 0.75002 0.33896 0.55684 1.3355 0.56751 2.021-0.0144 0.82426 1.4999-0.16274 2.0397 0.4032 0.46304 0.37105 0.20127 1.2582-0.42781 1.2194z"/>
</g>
</g>
</g>
</svg>
